<svg id="Layer_1" data-name="Layer 1" xmlns="http://www.w3.org/2000/svg" xmlns:xlink="http://www.w3.org/1999/xlink" viewBox="0 0 731.72 731.72"><defs><style>.cls-1{fill:#a4ce39;}.cls-2{mask:url(#mask);}.cls-3{fill:#dd4d3e;}.cls-4{fill:#fff;}</style><mask id="mask" x="-140.25" y="-106.56" width="957.88" height="852.26" maskUnits="userSpaceOnUse"><g transform="translate(-678.66 -150.06)"><polygon class="cls-1" points="832.63 895.76 832.63 392.6 538.41 895.76 832.63 895.76"/><polygon class="cls-1" points="832.63 895.76 1048.65 895.76 1048.65 526.32 832.63 895.76"/><polygon class="cls-1" points="1264.68 895.76 1264.68 526.32 1048.65 895.76 1264.68 895.76"/><polygon class="cls-1" points="1496.3 635.72 1437.65 169.29 1288.6 150.14 1397.88 43.49 882.76 43.49 882.76 132.56 606.69 132.56 606.69 635.72 882.76 163.59 882.76 704.83 1098.78 335.39 1098.78 704.83 1314.81 335.39 1314.81 864.88 1379.61 843.86 1379.61 728.94 1496.3 635.72"/></g></mask></defs><title>adviseme-logo</title><g class="cls-2"><circle class="cls-3" cx="365.86" cy="365.86" r="365.86"/></g><rect class="cls-4" x="56.36" y="381.02" width="113.82" height="21.5"/></svg>